<svg width="1074" height="1021" viewBox="0 0 1074 1021" fill="none" xmlns="http://www.w3.org/2000/svg">
<g clip-path="url(#clip0_2901_16516)">
<path d="M125.33 360.341C125.33 360.341 163.582 137.225 259.213 137.225C316.592 77.7178 395.211 -5.14317 537.591 33.1062C679.97 71.3556 584.339 60.7266 679.97 71.3556L775.601 81.9847C775.601 81.9847 1002.98 73.4891 1026.36 181.856C1049.73 290.223 1060.36 285.975 1070.99 364.588C1081.62 443.202 1062.49 538.825 1039.12 585.57C1015.75 632.315 1085.87 759.807 947.737 825.677C809.605 891.546 788.365 900.042 769.239 940.425C750.112 980.789 624.744 1046.68 537.61 1010.54C450.475 974.426 318.725 961.664 257.099 982.922C195.472 1004.18 -4.28615 929.796 12.7255 817.181C29.7181 704.566 76.4858 670.565 61.6077 564.312C46.7297 458.059 76.4858 396.437 125.368 360.321L125.33 360.341Z" fill="#AED3C5"/>
<path d="M113.652 336.949C113.652 336.949 151.905 113.834 247.536 113.834C304.895 54.3454 383.533 -28.5156 525.913 9.73378C668.293 47.9832 572.662 37.3541 668.293 47.9832L763.923 58.6122C763.923 58.6122 991.304 50.1166 1014.68 158.484C1038.05 266.851 1048.68 262.603 1059.31 341.216C1069.94 419.829 1050.82 515.453 1027.44 562.198C1004.07 608.943 1074.19 736.434 936.059 802.304C797.928 868.174 776.687 876.669 757.561 917.052C738.435 957.416 613.067 1023.3 525.932 987.17C438.797 951.054 307.048 938.291 245.421 959.549C183.794 980.808 -15.9639 906.423 1.04775 793.808C18.0403 681.194 64.8081 647.192 49.93 540.94C35.052 434.687 64.8081 373.065 113.69 336.949H113.652Z" fill="#DAE8E3"/>
<path opacity="0.98" d="M619.429 768.988C619.429 768.988 703.192 677.975 700.144 671.822C697.096 665.669 678.827 666.907 663.587 679.194C648.366 691.499 605.713 724.701 605.713 724.701C605.713 724.701 566.108 751.749 488.441 767.75C514.33 778.817 587.444 781.275 587.444 781.275L619.429 768.969V768.988Z" fill="#D88D50" stroke="black" stroke-miterlimit="10"/>
<path d="M268.49 422.82C268.49 422.82 253.231 407.714 264.738 389.523C276.244 371.332 308.629 390.856 311.563 402.876C314.496 414.896 321.259 423.448 316.42 429.944C311.582 436.439 291.217 433.525 285.845 434.535C280.492 435.544 268.49 422.839 268.49 422.839V422.82Z" fill="#4C1F00" stroke="black" stroke-width="0.5" stroke-miterlimit="10"/>
<path d="M388.943 765.178C388.943 765.178 370.179 775.179 346.424 768.931C342.671 758.931 372.694 716.414 372.694 716.414L388.943 765.178V765.178Z" fill="#E2BE6D" stroke="black" stroke-width="0.5" stroke-miterlimit="10"/>
<path d="M346.405 636.373C346.405 636.373 348.9 715.157 316.382 742.682C317.639 741.425 297.618 745.178 298.875 757.693C300.133 770.207 337.642 775.198 346.405 768.95C355.168 762.702 378.923 725.177 378.923 725.177C378.923 725.177 406.431 651.383 397.687 635.134C388.924 618.886 346.405 636.392 346.405 636.392V636.373Z" fill="#E2BE6D" stroke="black" stroke-width="0.5" stroke-miterlimit="10"/>
<path d="M410.203 437.525C410.203 437.525 509.015 468.784 555.288 552.578C601.56 636.373 594.055 673.879 594.055 673.879C594.055 673.879 631.583 697.633 629.068 728.91C626.573 760.169 587.787 796.437 587.787 796.437C587.787 796.437 507.739 823.943 398.926 793.942C376.409 777.693 365.15 732.663 372.656 716.414C380.161 700.166 380.161 643.878 368.903 630.125C368.903 627.629 410.184 437.525 410.184 437.525H410.203Z" fill="#E2BE6D" stroke="black" stroke-width="0.5" stroke-miterlimit="10"/>
<path d="M196.424 589.323C200.901 623.991 320.382 659.669 371.532 641.782C377.59 639.649 382.676 636.792 386.524 633.096C413.842 606.714 412.089 509.338 409.536 462.917C408.717 447.716 407.784 438.001 407.784 438.001L385.952 422.134L380.257 418C380.257 418 370.198 414.515 356.158 411.143C356.234 411.048 356.311 410.952 356.387 410.838L321.659 404.686L321.906 405.314C317.544 404.933 313.201 404.743 309.01 404.819C301.009 404.933 293.541 405.962 287.331 408.362C285.692 408.991 284.149 409.695 282.721 410.514C274.643 415.086 263.88 428.153 252.698 445.449C224.142 489.661 192.843 561.474 196.424 589.342V589.323Z" fill="#E2BE6D" stroke="black" stroke-width="0.5" stroke-miterlimit="10"/>
<path d="M336.575 571.798C348.769 571.798 358.654 557.897 358.654 540.749C358.654 523.601 348.769 509.7 336.575 509.7C324.381 509.7 314.496 523.601 314.496 540.749C314.496 557.897 324.381 571.798 336.575 571.798Z" fill="#EFDED3"/>
<path d="M254.317 558.998C266.511 558.998 276.396 545.096 276.396 527.949C276.396 510.801 266.511 496.899 254.317 496.899C242.123 496.899 232.238 510.801 232.238 527.949C232.238 545.096 242.123 558.998 254.317 558.998Z" fill="#EFDED3"/>
<path d="M317.487 755.445C313.677 756.321 303.466 761.369 308.362 766.531C310.381 768.665 313.734 768.988 316.458 769.331C321.145 769.922 325.869 770.303 330.593 770.474C334.746 770.627 339.394 771.122 343.471 770.017C347.014 769.045 349.472 766.398 351.815 763.712C357.854 756.778 363.455 749.483 368.636 741.882C368.846 741.578 368.35 741.292 368.141 741.597C363.912 747.787 359.416 753.769 354.615 759.521C352.596 761.959 350.596 764.55 348.215 766.664C344.957 769.56 341.204 769.998 336.994 769.998C329.831 769.998 322.649 769.56 315.563 768.607C312.267 768.169 306 766.722 308.248 761.921C309.791 758.645 314.382 756.721 317.658 755.959C318.02 755.883 317.868 755.331 317.506 755.407L317.487 755.445Z" fill="black"/>
<path d="M310.172 588.58C310.172 588.58 338.271 599.152 338.271 618.086C338.271 637.02 339.718 649.078 329.622 655.974C319.544 662.869 201.435 611.19 201.435 611.19C201.435 611.19 211.074 556.407 237.229 567.436C263.385 578.465 310.172 588.561 310.172 588.561V588.58Z" fill="#773000" stroke="black" stroke-width="0.25" stroke-miterlimit="10"/>
<path d="M284.588 546.921C284.588 546.921 310.21 569.76 307.467 577.951C304.724 586.161 259.289 578.027 257.232 565.779C255.175 553.53 284.588 546.902 284.588 546.902V546.921Z" fill="#231F20"/>
<path d="M289.426 562.369C299.79 558.217 270.872 551.169 265.614 559.569C260.356 567.97 284.169 564.465 289.426 562.369Z" fill="#444444"/>
<path d="M527.151 515.091C527.151 515.091 501.243 506.367 494.137 519.777C487.032 533.187 473.258 543.035 494.213 558.598C515.168 574.16 539.4 577.151 539.629 585.723C539.857 594.294 550.697 600.219 554.85 602.542C559.002 604.866 580.91 610.524 580.91 610.524C580.91 610.524 561.041 554.807 527.151 515.091V515.091Z" fill="#4C1F00"/>
<path d="M384.524 684.184C384.524 684.184 407.022 675.803 411.232 692.623C415.461 709.443 374.484 718.662 374.484 718.662C374.484 718.662 374.618 687.88 384.524 684.184V684.184Z" fill="#4C1F00"/>
<path d="M452.037 617.343C452.037 617.343 480.783 614.886 488.365 643.192C495.928 671.498 442.969 669.041 442.969 669.041C442.969 669.041 423.291 635.801 452.056 617.343H452.037Z" fill="#4C1F00"/>
<path d="M455.199 600.104C455.199 600.104 461.924 612.581 458.076 619.305C454.228 626.029 444.627 624.105 444.627 624.105C444.627 624.105 430.225 613.552 455.18 600.104H455.199Z" fill="#4C1F00"/>
<path d="M322.516 526.977C328.187 526.977 332.784 520.325 332.784 512.119C332.784 503.913 328.187 497.261 322.516 497.261C316.845 497.261 312.248 503.913 312.248 512.119C312.248 520.325 316.845 526.977 322.516 526.977Z" fill="#4C1F00"/>
<path d="M329.736 501.757C335.523 501.757 340.214 499.608 340.214 496.957C340.214 494.305 335.523 492.156 329.736 492.156C323.95 492.156 319.259 494.305 319.259 496.957C319.259 499.608 323.95 501.757 329.736 501.757Z" fill="#4C1F00"/>
<path d="M557.25 679.86C557.25 679.86 577.938 692.051 568.489 704.299C559.041 716.567 525.741 691.08 525.741 691.08C525.741 691.08 548.144 674.489 557.25 679.841V679.86Z" fill="#4C1F00"/>
<path d="M595.883 674.908C595.883 674.908 555.859 662.583 515.054 699.576" stroke="#231F20" stroke-width="0.5" stroke-miterlimit="10"/>
<path d="M257.422 525.567C260.978 525.567 263.861 520.331 263.861 513.872C263.861 507.412 260.978 502.176 257.422 502.176C253.866 502.176 250.983 507.412 250.983 513.872C250.983 520.331 253.866 525.567 257.422 525.567Z" fill="black" stroke="black" stroke-width="0.5" stroke-miterlimit="10"/>
<path d="M341.985 536.787C345.541 536.787 348.424 531.551 348.424 525.091C348.424 518.632 345.541 513.396 341.985 513.396C338.429 513.396 335.546 518.632 335.546 525.091C335.546 531.551 338.429 536.787 341.985 536.787Z" fill="black" stroke="black" stroke-width="0.5" stroke-miterlimit="10"/>
<path d="M270.376 610.809L278.339 578.122" stroke="black" stroke-width="0.75" stroke-miterlimit="10"/>
<path d="M259.88 514.824C261.742 514.824 263.252 512.078 263.252 508.69C263.252 505.303 261.742 502.557 259.88 502.557C258.017 502.557 256.508 505.303 256.508 508.69C256.508 512.078 258.017 514.824 259.88 514.824Z" fill="#757575"/>
<path d="M344.252 525.739C346.114 525.739 347.624 522.993 347.624 519.605C347.624 516.218 346.114 513.472 344.252 513.472C342.39 513.472 340.88 516.218 340.88 519.605C340.88 522.993 342.39 525.739 344.252 525.739Z" fill="#757575"/>
<path d="M257.289 506.538C258.268 506.538 259.061 505.745 259.061 504.766C259.061 503.788 258.268 502.995 257.289 502.995C256.311 502.995 255.518 503.788 255.518 504.766C255.518 505.745 256.311 506.538 257.289 506.538Z" fill="white"/>
<path d="M342.633 517.186C343.611 517.186 344.405 516.393 344.405 515.415C344.405 514.436 343.611 513.643 342.633 513.643C341.655 513.643 340.861 514.436 340.861 515.415C340.861 516.393 341.655 517.186 342.633 517.186Z" fill="white"/>
<path d="M252.679 479.832C252.679 479.832 264.052 461.203 278.339 463.374" stroke="black" stroke-width="0.5" stroke-miterlimit="10"/>
<path d="M344.767 473.165C344.767 473.165 363.817 483.832 362.197 498.176" stroke="black" stroke-width="0.5" stroke-miterlimit="10"/>
<path d="M73.2471 865.698C73.2471 865.698 225.647 725.501 237.839 717.881C250.031 710.262 339.947 681.308 458.819 710.262C510.635 714.833 541.115 716.357 588.359 705.69C614.267 711.786 586.835 739.215 483.203 775.789C513.683 786.456 565.499 798.647 577.691 794.075C589.883 789.503 725.518 691.975 762.094 720.929C775.81 746.835 576.167 864.174 542.639 874.841C509.111 885.508 339.947 879.412 335.375 877.889C330.803 876.365 263.747 944.939 263.747 951.035C263.747 957.13 129.635 981.512 73.2471 865.698V865.698Z" fill="#EDB883" stroke="black" stroke-miterlimit="10"/>
<path d="M578.148 790.856C578.148 790.856 613.162 800.856 606.914 817.124C600.665 833.372 533.114 834.629 505.606 832.134C478.098 829.639 461.829 823.372 464.324 818.381C466.82 813.371 550.621 819.638 568.128 813.371C585.635 807.123 553.116 790.856 533.114 785.865C543.115 783.37 578.148 790.875 578.148 790.875V790.856Z" fill="#632800" stroke="black" stroke-width="0.5" stroke-miterlimit="10"/>
<path d="M240.087 589.361C240.087 589.361 254.051 623.058 317.335 614.829" stroke="black" stroke-width="0.75" stroke-miterlimit="10"/>
<path d="M267.367 612.943C267.367 612.943 318.725 573.646 317.297 615.229C302.666 620.524 276.987 616.734 267.367 612.943Z" fill="#FC0B44" stroke="black" stroke-width="0.25" stroke-miterlimit="10"/>
<path d="M285.769 616.371C285.769 616.371 299.58 612.124 302.761 606.809Z" fill="#FC0B44"/>
<path d="M285.769 616.371C285.769 616.371 299.58 612.124 302.761 606.809" stroke="black" stroke-width="0.25" stroke-miterlimit="10"/>
<path opacity="0.98" d="M432.473 332.377C432.473 332.377 393.363 422.877 397.268 426.706C401.174 430.534 414.604 424.801 422.833 411.543C431.063 398.285 454.418 362.093 454.418 362.093C454.418 362.093 477.107 331.33 531.342 298.871C508.958 297.347 453.294 314.719 453.294 314.719L432.454 332.377H432.473Z" fill="#8C4F2D" stroke="black" stroke-miterlimit="10"/>
<path opacity="0.98" d="M463.181 381.427C463.181 381.427 444.055 423.41 453.123 432.706C462.191 442.002 483.87 393.923 486.022 390.075C488.175 386.208 500.729 362.093 500.729 362.093L463.2 381.427H463.181Z" fill="#8C4F2D" stroke="black" stroke-miterlimit="10"/>
<path opacity="0.98" d="M518.54 357.731C518.54 357.731 501.167 400.133 505.053 411.238C508.939 422.343 548.525 351.407 548.525 351.407L518.54 357.731Z" fill="#8C4F2D" stroke="black" stroke-miterlimit="10"/>
<path d="M807.758 132.273C807.758 132.273 729.938 277.822 722.776 286.756C715.613 295.69 655.567 341.121 558.508 350.569C518.312 360.741 494.976 367.617 462.229 388.056C441.141 390.285 454.571 362.436 522.922 307.672C497.186 307.672 454.99 312.11 447.008 318.739C439.045 325.387 362.617 434.42 327.488 422.248C310.362 406.362 429.73 265.593 452.152 248.754C474.573 231.916 603.465 192.028 607.314 191.99C611.162 191.952 643.585 122.71 641.985 118.12C640.384 113.529 734.891 59.9266 807.758 132.254V132.273Z" fill="#B26E36" stroke="black" stroke-miterlimit="10"/>
<path d="M416.528 449.297C416.528 449.297 437.197 443.468 435.94 421.982C434.682 400.495 396.887 401.904 388.505 410.991C380.123 420.077 370.065 424.286 371.151 432.306C372.237 440.325 391.477 447.64 395.668 451.126C399.878 454.593 416.528 449.297 416.528 449.297V449.297Z" fill="#4C1F00" stroke="black" stroke-width="0.5" stroke-miterlimit="10"/>
</g>
<defs>
<clipPath id="clip0_2901_16516">
<rect width="1074" height="1021" fill="white"/>
</clipPath>
</defs>
</svg>
