<svg width="456" height="513" viewBox="0 0 456 513" fill="none" xmlns="http://www.w3.org/2000/svg">
<g clip-path="url(#clip0_2_26)">
<path d="M208.235 507.048L145.579 469.974C136.239 464.756 140.808 462.888 143.894 461.812C156.36 457.487 158.898 456.492 172.197 448.919C173.598 448.147 175.425 448.432 176.887 449.284L225.006 477.851C226.772 478.826 229.209 478.826 230.833 477.851L418.457 369.573C420.203 368.578 421.319 366.548 421.319 364.497V147.962C421.319 145.85 420.203 143.86 418.416 142.784L230.874 34.5876C229.127 33.5724 226.833 33.5724 225.087 34.5876L37.5852 142.825C35.7579 143.86 34.6209 145.911 34.6209 147.962V364.518C34.6209 366.589 35.7579 368.538 37.5649 369.533L88.9731 399.216C116.87 413.165 133.945 396.739 133.945 380.233V166.438C133.945 163.413 136.382 161.037 139.407 161.037H163.202C166.167 161.037 168.623 163.413 168.623 166.438V380.233C168.623 417.449 148.361 438.808 113.073 438.808C102.231 438.808 93.6835 438.808 69.8473 427.052L20.6522 398.729C8.51077 391.704 0.97821 378.568 0.97821 364.497V147.962C0.97821 133.891 8.51077 120.775 20.6522 113.771L208.296 5.35062C220.174 -1.3698 235.949 -1.3698 247.725 5.35062L435.349 113.771C447.511 120.796 455.064 133.912 455.064 147.962V364.497C455.064 378.568 447.511 391.643 435.349 398.729L247.725 507.048C234.441 514.444 221.29 513.675 208.235 507.048ZM366.5 226.8H342.136C339.619 226.8 337.405 225.013 336.878 222.556C331.03 196.568 316.818 188.264 278.282 188.264C235.117 188.264 230.102 203.289 230.102 214.557C230.102 228.221 236.031 232.201 294.281 239.896C351.943 247.509 379.352 258.311 379.352 298.816C379.352 339.707 345.304 363.117 285.855 363.117C203.728 363.117 186.551 325.413 186.551 293.801C186.551 290.796 188.947 288.4 191.952 288.4H216.214C218.915 288.4 221.189 290.35 221.595 292.989C225.25 317.678 236.152 330.164 285.835 330.164C325.345 330.164 342.177 321.211 342.177 300.258C342.177 288.157 337.426 279.203 275.988 273.173C224.661 268.097 192.886 256.747 192.886 215.694C192.886 177.828 224.803 155.251 278.302 155.251C338.421 155.251 368.145 176.102 371.921 220.892C372.238 223.583 369.818 226.826 366.5 226.8Z" fill="black"/>
</g>
<defs>
<clipPath id="clip0_2_26">
<rect width="455" height="512" fill="white" transform="translate(0.97821 0.310303)"/>
</clipPath>
</defs>
</svg>
