<svg width="446" height="447" viewBox="0 0 446 447" fill="none" xmlns="http://www.w3.org/2000/svg">
<path d="M223 6.98438C103.921 6.98438 6.96875 104.067 6.96875 223.5C6.96875 342.846 103.921 440.016 223 440.016C342.079 440.016 439.031 342.846 439.031 223.5C439.031 104.067 342.079 6.98438 223 6.98438ZM28.7461 223.5C28.7461 195.301 34.7566 168.498 45.5582 144.315L138.243 398.721C73.4332 367.116 28.7461 300.503 28.7461 223.5ZM223 418.189C203.923 418.189 185.543 415.396 168.121 410.245L226.397 240.524L286.067 404.483C286.503 405.443 286.938 406.316 287.461 407.189C267.339 414.261 245.648 418.189 223 418.189V418.189ZM249.743 132.267C261.415 131.655 271.955 130.433 271.955 130.433C282.409 129.211 281.189 113.758 270.736 114.369C270.736 114.369 239.289 116.814 218.993 116.814C199.916 116.814 167.86 114.369 167.86 114.369C157.407 113.758 156.187 129.822 166.64 130.433C166.64 130.433 176.571 131.655 187.024 132.267L217.251 215.381L174.741 343.107L104.009 132.267C115.681 131.655 126.221 130.433 126.221 130.433C136.675 129.211 135.455 113.758 125.002 114.369C125.002 114.369 93.5555 116.814 73.259 116.814C69.6004 116.814 65.332 116.726 60.7152 116.552C95.4719 63.7324 155.142 28.8105 223 28.8105C273.523 28.8105 319.604 48.1922 354.187 79.8838C353.316 79.7965 352.532 79.7092 351.661 79.7092C332.584 79.7092 319.082 96.3844 319.082 114.282C319.082 130.346 328.315 143.878 338.159 159.942C345.563 172.863 354.187 189.538 354.187 213.635C354.187 230.31 347.828 249.604 339.378 276.581L320.04 341.449L249.743 132.267V132.267ZM320.65 391.736L379.971 219.833C391.034 192.07 394.78 169.895 394.78 150.077C394.78 142.918 394.344 136.283 393.473 130.084C408.63 157.847 417.254 189.626 417.254 223.5C417.254 295.352 378.403 358.037 320.65 391.736V391.736Z" fill="black"/>
</svg>
