<svg width="512" height="512" viewBox="0 0 512 512" fill="none" xmlns="http://www.w3.org/2000/svg">
<path d="M331 456H181C157.7 456 139.3 437.7 139.3 414.3V97.7C139.3 74.4 157.6 56 181 56H331C354.3 56 372.7 74.3 372.7 97.7V414.4C372.7 436 354.3 456 331 456ZM181 72.7C167.7 72.7 156 84.4 156 97.7V414.4C156 427.7 167.7 439.4 181 439.4H331C344.3 439.4 356 427.7 356 414.4V97.7C356 84.4 344.3 72.7 331 72.7H181Z" fill="#010101"/>
<path d="M364.3 139.3H147.7C142.7 139.3 139.4 136 139.4 131C139.4 126 142.7 122.7 147.7 122.7H364.4C369.4 122.7 372.7 126 372.7 131C372.7 134.3 369.3 139.3 364.3 139.3Z" fill="#010101"/>
<path d="M364.3 389.3H147.7C142.7 389.3 139.4 386 139.4 381C139.4 376 142.7 372.7 147.7 372.7H364.4C369.4 372.7 372.7 376 372.7 381C372.7 386 369.3 389.3 364.3 389.3Z" fill="#010101"/>
<path d="M264.3 106H247.6C242.6 106 239.3 102.7 239.3 97.7C239.3 92.7 242.6 89.4 247.6 89.4H264.3C269.3 89.4 272.6 92.7 272.6 97.7C272.7 101 269.3 106 264.3 106Z" fill="#010101"/>
<path d="M314.3 106C309.3 106 306 102.7 306 97.7C306 92.7 309.3 89.4 314.3 89.4C319.3 89.4 322.6 92.7 322.6 97.7C322.7 101 319.3 106 314.3 106Z" fill="#010101"/>
<path d="M214.3 422.7H181C176 422.7 172.7 419.4 172.7 414.4C172.7 409.4 176 406.1 181 406.1H214.3C219.3 406.1 222.6 409.4 222.6 414.4C222.7 419.3 219.3 422.7 214.3 422.7Z" fill="#010101"/>
<path d="M331 422.7H297.7C292.7 422.7 289.4 419.4 289.4 414.4C289.4 409.4 292.7 406.1 297.7 406.1H331C336 406.1 339.3 409.4 339.3 414.4C339.3 419.3 336 422.7 331 422.7Z" fill="#010101"/>
</svg>
